PathFileType	4	(X/Y/Z)	C:/Users/beibeiliu/ov580/test_trc\sequence.21_training_dense_right.trc
DataRate	CameraRate	NumFrames	NumMarkers	Units	OrigDataRate	OrigDataStartFrame	OrigNumFrames
120	120	8	19	mm	120	1	69
Frame#	Time	ThumbCMC			ThumbMCP			ThumbIP			ThumbTip			IndexMCP			IndexPIP			IndexTip			MiddleMCP			MiddlePIP			MiddleTip			RingMCP			RingPIP			RingTip			PinkyMCP			PinkyPIP			PinkyTip			BackHand1			BackHand2			BackHand3	
		X0	Y0	Z0	X1	Y1	Z1	X2	Y2	Z2	X3	Y3	Z3	X4	Y4	Z4	X5	Y5	Z5	X6	Y6	Z6	X7	Y7	Z7	X8	Y8	Z8	X9	Y9	Z9	X10	Y10	Z10	X11	Y11	Z11	X12	Y12	Z12	X13	Y13	Z13	X14	Y14	Z14	X15	Y15	Z15	X16	Y16	Z16	X17	Y17	Z17	X18	Y18	Z18	
0	0	222.325	7.55435	148.775	235.928	26.8319	128.187	250.641	33.7819	105.957	262.369	39.1537	88.7268	257.698	-22.9294	89.6289	269.535	-21.6175	65.3376	283.089	-23.5478	51.2224	243.402	-47.9072	82.3592	252.881	-48.6544	59.4926	262.241	-58.3878	34.7161	226.033	-59.0791	82.0309	231.727	-65.9593	58.8194	237.973	-75.9246	34.6624	203.278	-67.1784	88.4818	202.88	-77.6184	69.1418	204.152	-92.7377	53.6185	212.839	-52.6039	131.805	203.572	-46.3544	161.105	228.35	-26.3598	149.545	
1	0.00833333	218.845	21.1697	145.647	222.965	36.9123	128.318	239.713	47.1257	104.567	249.303	58.3779	90.4408	260.965	-1.64709	93.6694	275.286	3.12103	71.0622	288.619	-0.932571	50.5018	256.363	-26.6879	89.1386	269.336	-30.1181	62.1588	281.24	-38.1031	39.566	244.748	-44.0273	85.9917	248.216	-55.4185	67.4372	262.13	-59.6157	42.0074	222.137	-58.5322	93.7622	227.287	-71.6473	73.9737	236.645	-83.3597	56.2126	224.136	-40.1099	135.294	211.4	-36.0562	162.931	233.431	-10.5742	150.285	
2	0.0166667	201.941	32.9079	146.626	205.719	46.0351	121.758	217.064	61.098	100.174	225.423	68.6493	82.7086	253.07	20.6646	90.8324	262.268	28.829	70.8748	276.678	26.7866	49.6592	260.069	-4.86009	84.7019	271.093	-5.3911	62.7199	285.951	-11.5339	38.6405	251.21	-28.0154	88.5544	259.974	-32.2595	69.6402	273.451	-38.5613	45.3509	237.746	-46.3523	96.3813	243.387	-57.891	79.7505	256.603	-68.0279	65.1448	231.707	-25.4417	135.365	219.451	-26.2641	161.819	228.976	5.35926	150.423	
3	0.025	182.076	36.3225	137.172	176.976	48.1447	115.682	185.073	60.3943	88.619	187.708	70.2601	69.5378	229.652	35.8456	83.7638	238.395	42.9989	56.821	251.623	42.2554	37.4413	247.697	8.44523	81.5763	259.627	8.96531	56.3265	272.786	6.38978	34.0607	248.579	-10.1695	84.9744	260.252	-16.5815	64.7148	271.575	-18.9097	42.5103	240.31	-32.9571	97.6577	249.13	-42.885	82.8842	268.776	-53.8804	65.6138	229.439	-6.8095	133.284	214.95	-11.0793	161.33	215.266	22.6963	140.288	
4	0.0333333	158.792	29.9997	128.372	150.152	34.1289	106.636	150.724	44.032	79.2035	151.187	49.1652	56.5486	204.054	32.4239	69.3928	206.043	37.6348	47.2902	218.392	36.6508	24.427	223.011	15.8143	74.9357	235.965	13.3822	46.8307	248.455	13.2269	26.2693	231.12	-4.21515	83.6439	245.977	-7.27786	58.8275	260.466	-10.8294	37.3617	233.48	-26.9256	99.3373	249.785	-34.9462	80.57	267.341	-42.6337	66.3666	215.298	1.22217	130.909	208.704	-1.25345	159.019	195.641	22.548	136.036	
5	0.0416667	137.399	14.315	121.38	128.246	10.8069	101.021	123.35	13.2734	76.4868	120.981	14.8398	52.9774	173.145	15.2842	60.5689	179.668	13.0993	35.0576	181.726	15.3862	9.17569	201.778	3.55243	67.0437	212.222	-1.25697	42.8302	221.25	-2.54377	18.7071	214.584	-8.42778	75.2987	228.986	-14.7577	58.4014	238.193	-18.0534	35.2253	226.04	-26.4469	96.9346	236.576	-31.9975	82.9106	261.294	-37.392	68.5991	202.971	0.502921	123.953	192.573	6.31817	149.752	175.353	19.2108	123.386	
6	0.05	120.86	-0.0651154	121.541	105.644	-5.48894	101.596	99.6108	-10.7694	73.4521	94.2585	-15.8408	55.071	151.257	-10.1936	57.0385	149.315	-16.8693	31.4898	158.638	-23.3067	9.08791	178.712	-14.907	61.0602	187.416	-25.3317	39.2238	198.134	-32.5804	14.6965	199.678	-23.4754	74.7702	210.723	-32.1028	57.1909	221.166	-39.4672	35.8959	207.991	-31.4704	98.0147	226.479	-41.3428	85.0556	246.883	-43.9532	69.4827	182.56	-0.51965	120.073	173.798	8.27285	144.948	153.642	10.8358	116.752	
7	0.0583333	106.46	-10.3409	129.809	92.9212	-22.0622	109.086	85.1371	-31.9148	84.5944	77.3664	-39.2117	65.0143	131.143	-33.4963	61.5121	131.741	-48.7589	38.2862	133.435	-58.7572	15.3772	162.881	-39.043	63.6725	167.676	-53.1554	43.0243	178.888	-66.3833	17.9894	184.044	-43.1107	76.9736	194.053	-54.8438	59.6973	198.353	-64.943	38.8954	194.525	-43.3252	101.669	207.886	-53.845	88.4583	229.975	-57.8098	73.0762	170.641	-11.254	114.439	163.275	4.25918	143.761	137.43	1.32472	117.801	
